<?xml version="1.0" encoding="utf-8"?>
<svg version="1.1" id="Layer_1" xmlns="http://www.w3.org/2000/svg" xmlns:xlink="http://www.w3.org/1999/xlink" x="0px" y="0px"
	 viewBox="0 0 575 575" style="enable-background:new 0 0 575 575;" xml:space="preserve">
<g>
	<circle class="st0" cx="287.5" cy="287.5" r="282.7" fill="white"/>
	<g>
		<path d="M377.4,221.7v88.5c0,3,2.4,5.4,5.4,5.4H418c3,0,5.4-2.4,5.4-5.4c0-0.7-0.1-1.4-0.4-2.1l-37-88.2c-1-2.3-3.6-3.4-5.9-2.4
			C378.5,218.2,377.4,219.9,377.4,221.7z" fill="#661a83"/>
		<path d="M197.6,353.3V127.5c0-10.9,8.9-19.8,19.8-19.8h0.4c8.2,0,15.6,4.9,18.8,12.4L335.1,355c1,2.3,3.6,3.4,5.9,2.4
			c1.7-0.7,2.8-2.3,2.8-4.2V128c0-11.2,9.1-20.2,20.2-20.2l0,0c8.2,0,15.5,4.9,18.7,12.4l122,290.9c1.2,2.7,4.3,4,7.1,2.9
			c1.1-0.5,2-1.3,2.6-2.4c68.5-125.2,22.6-282.3-102.6-350.8C306.6,3.3,176,25.5,95.8,114.3c-3.2,3.6-4.1,8.8-2.2,13.2L189,355.1
			c1,2.3,3.6,3.4,5.9,2.4C196.5,356.8,197.6,355.1,197.6,353.3z" fill="#F3993D"/>
		<path d="M435.5,349.3h-52.7c-3,0-5.4,2.4-5.4,5.4V447c0,11.2-9.1,20.2-20.2,20.2l0,0c-8.2,0-15.5-4.9-18.7-12.4L240,219.9
			c-1-2.3-3.6-3.4-5.9-2.4c-1.7,0.7-2.8,2.3-2.8,4.1V447c0,11.2-9.1,20.2-20.2,20.2l0,0c-8.2,0-15.5-4.9-18.7-12.4L70.4,164
			c-1.2-2.7-4.3-4-7.1-2.9c-1.1,0.5-2,1.3-2.6,2.4C-7.8,288.7,38.2,445.7,163.4,514.2c105,57.4,235.7,35.3,315.9-53.5
			c3.2-3.6,4.1-8.8,2.2-13.2l-39.3-93.8C441,351,438.4,349.3,435.5,349.3z" fill="#661a83"/>
	</g>
</g>
</svg>
